<?xml version="1.0" encoding="UTF-8" standalone="no"?>
<!-- Created with Inkscape (http://www.inkscape.org/) -->

<svg
   version="1.1"
   id="svg945"
   width="1029.8956"
   height="1029.6727"
   viewBox="0 0 1029.8956 1029.6727"
   sodipodi:docname="albi_large.svg"
   inkscape:version="1.1 (1:1.1+202105261517+ce6663b3b7)"
   xmlns:inkscape="http://www.inkscape.org/namespaces/inkscape"
   xmlns:sodipodi="http://sodipodi.sourceforge.net/DTD/sodipodi-0.dtd"
   xmlns="http://www.w3.org/2000/svg"
   xmlns:svg="http://www.w3.org/2000/svg">
  <defs
     id="defs949" />
  <sodipodi:namedview
     id="namedview947"
     pagecolor="#ffffff"
     bordercolor="#666666"
     borderopacity="1.0"
     inkscape:pageshadow="2"
     inkscape:pageopacity="0.0"
     inkscape:pagecheckerboard="0"
     showgrid="false"
     inkscape:zoom="0.265134"
     inkscape:cx="775.07977"
     inkscape:cy="790.16648"
     inkscape:window-width="1920"
     inkscape:window-height="1016"
     inkscape:window-x="0"
     inkscape:window-y="27"
     inkscape:window-maximized="1"
     inkscape:current-layer="g1183" />
  <g
     inkscape:groupmode="layer"
     inkscape:label="Image"
     id="g951"
     transform="translate(-218.11834,-212.53757)">
    <g
       id="g1183"
       transform="translate(85.966809,25.839855)">
      <circle
         style="fill:#ffffff;stroke-width:0.567"
         id="path1038"
         cy="695.18829"
         cx="651.59143"
         r="456.09625" />
      <path
         style="fill:#dc291a;stroke-width:0.952593"
         d="m 626.49618,1216.0213 c -8.04309,-0.3828 -11.04814,-0.781 -8.57334,-1.1362 3.28616,-0.4715 2.98757,-0.5688 -2.17042,-0.7069 -26.83183,-0.7184 -77.16642,-9.2742 -109.76625,-18.6579 -193.3786,-55.6634 -336.86827,-218.4263 -366.6384,-415.88459 -2.34749,-15.57031 -4.81622,-38.71694 -5.0009,-46.8881 -0.1198,-5.30027 -0.20403,-5.54723 -0.74031,-2.17042 -0.37391,2.3544 -0.8401,-2.46849 -1.22007,-12.62186 -0.67687,-18.08726 0.22595,-51.74602 1.22007,-45.4863 0.53628,3.37681 0.62051,3.12985 0.74031,-2.17042 0.34821,-15.40631 4.37165,-46.13244 9.25821,-70.70292 16.92246,-85.08917 55.9268,-165.05276 113.37511,-232.43262 12.0051,-14.08051 41.55618,-43.63159 55.63669,-55.63669 67.37986,-57.44831 147.34345,-96.45265 232.43262,-113.37511 24.57048,-4.88656 55.29661,-8.91 70.70292,-9.25821 5.30027,-0.1198 5.54723,-0.20403 2.17042,-0.74031 -6.25972,-0.99412 27.39904,-1.89694 45.4863,-1.22007 10.15337,0.37997 14.97626,0.84616 12.62186,1.22007 -3.37681,0.53628 -3.12985,0.62051 2.17042,0.74031 8.17116,0.18468 31.31779,2.65341 46.88809,5.0009 219.97017,33.16417 395.07569,207.62211 429.18019,427.59308 2.606,16.80806 5.1371,39.9567 5.3373,48.81157 0.1196,5.29347 0.2044,5.54291 0.738,2.17042 0.6093,-3.85111 2.1522,31.14112 1.5752,35.72223 -0.165,1.30981 -0.4156,7.73981 -0.5568,14.28889 -0.1804,8.3694 -0.4595,10.77525 -0.939,8.09704 -0.6279,-3.50717 -0.693,-3.33447 -0.8174,2.17042 -0.1849,8.17977 -2.6551,31.33147 -5.0027,46.8881 -14.1952,94.06156 -54.7536,182.42296 -117.6191,256.24749 -11.9905,14.0808 -41.56752,43.6577 -55.64822,55.6482 -73.82451,62.8655 -162.18591,103.424 -256.24747,117.6191 -15.55662,2.3477 -38.70832,4.8179 -46.88809,5.0028 -5.50489,0.1244 -5.67759,0.1894 -2.17042,0.8174 2.90874,0.5208 1.66899,0.7194 -5.23926,0.8394 -4.9773,0.087 -14.19363,0.302 -20.48075,0.4789 -6.28711,0.1769 -17.00378,0.056 -23.81481,-0.2677 z M 430.54786,920.42891 c 0.8455,-0.8455 1.14311,-9.81523 1.14311,-34.4521 0,-18.31994 0.21228,-33.09671 0.47172,-32.83726 0.25945,0.25944 4.35876,15.43276 9.10957,33.71847 4.75082,18.28572 9.14671,33.57033 9.76865,33.9658 0.62194,0.39547 5.74816,0.7256 11.3916,0.73362 9.73381,0.0138 10.30911,-0.0955 11.20151,-2.12875 0.51739,-1.17883 4.39375,-16.49551 8.61416,-34.03706 4.22039,-17.54155 7.86022,-32.08049 8.08849,-32.30877 0.22828,-0.22827 0.41505,14.57401 0.41505,32.89395 0,24.63687 0.29761,33.6066 1.14311,34.4521 0.62871,0.62871 3.6143,1.14311 6.63464,1.14311 4.45437,0 5.67775,-0.34799 6.47763,-1.84256 0.63093,-1.17891 0.9861,-15.0971 0.9861,-38.64263 0,-23.54553 -0.35517,-37.46371 -0.9861,-38.64262 -0.89689,-1.67584 -2.1006,-1.84257 -13.30279,-1.84257 -10.7577,0 -12.42878,0.21101 -13.20237,1.66704 -0.48714,0.91687 -4.4037,16.24171 -8.70347,34.05519 -4.29977,17.81348 -7.98862,32.56676 -8.19744,32.78507 -0.20883,0.21829 -0.55346,0.21829 -0.76584,0 -0.21239,-0.21831 -3.88837,-14.95297 -8.16884,-32.74372 -4.28048,-17.79073 -8.19413,-33.11557 -8.69699,-34.05519 -0.80683,-1.50756 -2.36218,-1.70839 -13.23098,-1.70839 -11.2022,0 -12.4059,0.16673 -13.30279,1.84257 -0.63093,1.17891 -0.9861,15.09709 -0.9861,38.64262 0,23.54553 0.35517,37.46372 0.9861,38.64263 0.79987,1.49457 2.02326,1.84256 6.47763,1.84256 3.02034,0 6.00593,-0.5144 6.63464,-1.14311 z m 118.60874,-1.00022 c 0.71128,-1.17883 2.52094,-7.40668 4.02145,-13.83964 l 2.72822,-11.69631 11.87988,0.2652 11.87986,0.26519 2.96824,12.38371 c 1.63251,6.81103 3.29977,12.91954 3.70499,13.57444 0.4653,0.752 2.98521,1.19074 6.83889,1.19074 4.85407,0 6.27522,-0.34095 6.94844,-1.66703 0.59144,-1.16496 -2.15399,-12.99969 -9.11553,-39.29445 -5.47902,-20.69508 -10.39827,-38.16325 -10.93167,-38.81816 -1.44678,-1.77635 -24.42515,-1.67542 -25.1104,0.1103 -0.27458,0.71556 -4.91889,18.18373 -10.32066,38.81815 -6.91204,26.40351 -9.56721,38.01094 -8.96326,39.18416 0.67143,1.30432 2.08965,1.66703 6.51823,1.66703 4.85147,0 5.84483,-0.3062 6.95332,-2.14333 z m 10.18179,-38.7337 c 0,-0.9079 4.15938,-18.91584 5.79517,-25.09001 0.65206,-2.46121 1.48191,-3.57222 2.66815,-3.57222 1.4216,0 2.24959,2.20023 4.74978,12.62185 1.66543,6.94202 3.28179,13.58635 3.59191,14.76519 0.55436,2.10721 0.41752,2.14333 -8.12057,2.14333 -4.77645,0 -8.68444,-0.39066 -8.68444,-0.86814 z m 139.90851,39.59589 c 1.51164,-1.82142 20.84163,-76.00885 20.32917,-78.0222 -0.35162,-1.38143 -1.52771,-1.66704 -6.86472,-1.66704 -3.99031,0 -6.81627,0.45299 -7.42842,1.19074 -0.54341,0.65491 -4.45448,15.95889 -8.69125,34.00884 -7.17623,30.57292 -8.66918,35.5939 -10.14479,34.11831 -0.31387,-0.31387 -4.02763,-15.50296 -8.25282,-33.75354 -4.22519,-18.25057 -8.10035,-33.7187 -8.61148,-34.37361 -0.58379,-0.74802 -3.3763,-1.19074 -7.51072,-1.19074 -8.13225,0 -8.41357,0.50521 -5.74256,10.31263 1.09503,4.02068 5.65298,21.21586 10.12881,38.21148 4.47581,16.99564 8.67506,31.24224 9.33166,31.65913 2.14743,1.36344 22.26723,0.93973 23.45712,-0.494 z m 64.42262,-39.20405 v -40.00889 l -6.16735,-0.28915 c -4.98842,-0.23387 -6.39964,0.0286 -7.38259,1.37281 -1.58264,2.16439 -1.77561,74.67826 -0.20653,77.61011 0.87676,1.63825 1.84249,1.84812 7.38259,1.60441 l 6.37388,-0.28039 z m 84.12693,35.27749 c 0.43765,-6.93051 -0.18168,-7.176 -18.10381,-7.176 h -15.05942 v -32.68238 c 0,-24.99394 -0.28588,-33.07335 -1.21525,-34.34434 -0.98295,-1.34427 -2.39417,-1.60668 -7.38259,-1.37281 l -6.16734,0.28915 -0.24886,39.46975 c -0.19508,30.93968 0.0108,39.63665 0.9526,40.24198 0.66079,0.42471 11.48944,0.66732 24.06367,0.53913 l 22.86222,-0.23307 z m 79.04843,-0.62342 c 0.3516,-6.67437 0.7848,-6.5222 -18.61941,-6.53958 l -14.5271,-0.013 v -33.15023 c 0,-24.51338 -0.2978,-33.44804 -1.1431,-34.29333 -1.7947,-1.79474 -12.8055,-1.49856 -13.5201,0.36369 -0.318,0.82873 -0.5782,18.53267 -0.5782,39.34207 0,28.4558 0.2874,38.12274 1.1595,38.99486 0.8614,0.86138 7.0468,1.0941 24.053,0.90497 l 22.89341,-0.25462 z m 80.97422,4.68801 c 0.6287,-0.62871 1.1431,-2.9713 1.1431,-5.20575 0,-3.04166 -0.4631,-4.31044 -1.8426,-5.04874 -1.0636,-0.56924 -8.71482,-0.9861 -18.09932,-0.9861 h -16.2567 v -12.38371 -12.3837 h 15.5273 c 10.8066,0 15.87482,-0.34754 16.67042,-1.14311 1.3001,-1.30017 1.5122,-7.27849 0.3246,-9.15099 -0.5889,-0.92863 -4.7557,-1.29128 -16.41762,-1.42889 l -15.6284,-0.18442 v -10.00222 -10.00223 l 17.1046,-0.26092 c 18.48052,-0.28192 18.57742,-0.31117 18.60312,-5.61487 0.031,-6.33036 1.2758,-6.03162 -25.14052,-6.03162 -17.3956,0 -24.3132,0.31453 -25.1418,1.14312 -1.6423,1.64227 -1.6423,77.04188 0,78.68415 0.8271,0.82713 7.6207,1.14311 24.5769,1.14311 16.95612,0 23.74972,-0.31598 24.57692,-1.14311 z M 313.15843,902.07123 c 9.68605,-2.88976 15.65253,-10.83341 15.65253,-20.83945 0,-11.54144 -7.2558,-20.10025 -18.6473,-21.99604 -12.09644,-2.01311 -25.17197,9.24442 -25.17197,21.67212 0,9.73314 7.75598,19.27206 17.62297,21.67416 4.34979,1.05895 5.46299,1.00502 10.54377,-0.51079 z m 15.35569,-104.57441 c 0.4225,-0.6549 1.0464,-8.90674 1.38641,-18.33741 0.48215,-13.37221 1.0707,-18.70525 2.67368,-24.22703 10.7562,-37.05156 42.05643,-63.13926 79.95028,-66.6359 4.81288,-0.4441 9.05808,-1.11379 9.43377,-1.48818 0.86589,-0.86292 1.47931,-35.19742 0.70279,-39.33666 -0.77403,-4.12592 -2.96903,-4.57262 -15.57456,-3.1695 -27.32702,3.04176 -52.52601,13.61213 -72.424,30.38012 l -5.10329,4.30053 0.4459,-18.97466 c 0.51251,-21.80945 1.67892,-27.33058 8.85322,-41.90632 11.19672,-22.74792 31.95408,-40.07905 57.11042,-47.6837 7.77909,-2.35158 10.02944,-2.59773 24.29112,-2.657 13.56351,-0.0564 16.81883,0.23473 23.75115,2.12381 32.34033,8.81286 57.32378,34.17785 65.95612,66.96334 2.07209,7.86976 2.11068,9.19453 2.4523,84.17927 0.26291,57.71048 0.62306,76.35916 1.48523,76.90728 0.626,0.39797 9.98052,0.73015 20.78783,0.73817 15.68613,0.0116 19.87273,-0.2542 20.75556,-1.31794 0.82564,-0.99484 1.02291,-21.21245 0.77846,-79.77964 -0.36293,-86.95107 -0.003,-81.6414 -6.96312,-102.60129 -15.38579,-46.33038 -56.28679,-81.42245 -105.18871,-90.24939 -12.23369,-2.20822 -34.68898,-2.22428 -46.20075,-0.0331 -27.69037,5.27078 -50.70169,16.97352 -70.2283,35.71563 -20.629,19.80021 -33.47105,42.73831 -39.96646,71.38698 -2.0477,9.03159 -2.10248,10.98022 -2.43788,86.72155 -0.25796,58.25333 -0.0662,77.81608 0.77288,78.82705 1.53528,1.8499 41.31287,1.99398 42.49995,0.15394 z m 555.60745,-1.50408 c 29.1777,-8.96116 49.72791,-31.23541 55.70131,-60.37428 3.8181,-18.62505 -0.024,-38.92728 -10.5687,-55.84536 -8.1654,-13.10095 -23.23321,-25.63225 -36.98461,-30.75879 -3.1436,-1.17191 -5.8289,-2.20291 -5.9675,-2.2911 -0.1385,-0.0882 0.826,-2.51457 2.1433,-5.39196 6.5972,-14.41025 8.3596,-34.52938 4.3651,-49.8326 -7.3137,-28.0195 -28.13602,-48.88812 -56.74391,-56.87007 -7.54895,-2.10625 -8.25338,-2.12657 -74.77853,-2.15848 -62.47082,-0.0299 -67.46832,0.0876 -71.60743,1.68493 -5.43592,2.09771 -11.6987,8.6317 -13.09568,13.66277 -0.68168,2.45503 -1.02135,26.91881 -1.0249,73.81689 l -0.006,70.14494 2.66094,5.09362 c 6.45744,12.36095 21.63731,15.72361 32.69919,7.24356 2.20258,-1.6885 4.89976,-4.78466 5.99375,-6.88037 1.94512,-3.72615 1.99481,-5.10073 2.24857,-62.19401 l 0.25949,-58.38365 53.562,0.27549 53.56199,0.27549 5.50367,2.78706 c 6.52535,3.30444 13.27724,10.19628 16.15949,16.49442 1.65468,3.61573 2.08221,6.36511 2.1121,13.58297 0.0338,8.15861 -0.23741,9.59272 -2.75456,14.5656 -3.40078,6.7186 -9.35348,12.38291 -16.56718,15.76456 -5.36405,2.51476 -5.6149,2.53796 -32.5546,3.01059 l -27.14889,0.47629 v 21.43334 21.43333 l 49.53482,0.49889 c 49.43592,0.49789 49.54621,0.50342 55.24337,2.77455 7.8568,3.13205 15.6173,10.94443 18.5194,18.64322 6.3025,16.71952 -0.82,34.68283 -16.888,42.59238 l -6.3485,3.12504 -97.18387,-0.0135 -97.18389,-0.0135 -7.62074,-2.12911 c -23.36559,-6.52798 -36.18692,-19.10056 -42.64104,-41.8137 l -2.12272,-7.47014 -0.48035,-162.21378 c -0.4228,-142.7847 -0.65148,-162.32553 -1.90923,-163.14677 -0.8497,-0.55481 -9.45559,-0.83027 -21.23137,-0.67957 -16.37267,0.20952 -19.95866,0.5009 -20.70429,1.68231 -1.31444,2.08263 -1.22296,306.88262 0.0963,320.96703 4.12965,44.08712 26.58534,76.20294 63.27268,90.49173 8.67898,3.38025 23.48856,7.09285 31.91185,7.99998 1.83374,0.19748 47.9154,0.3049 102.40371,0.23872 l 99.06966,-0.12033 z m 120.47603,2.11661 c 1.3633,-0.52315 1.5068,-12.38733 1.5068,-124.6026 v -124.0244 l -2.4512,-4.91882 c -8.47732,-17.01172 -32.51062,-15.76268 -39.96452,2.07699 -1.2118,2.90021 -1.4036,20.19189 -1.4036,126.55999 0,94.55275 0.2658,123.46664 1.1431,124.34394 1.2075,1.20751 38.17302,1.71473 41.16942,0.5649 z M 991.60788,505.71478 c 10.21832,-4.26842 15.68922,-16.33734 12.18642,-26.88329 -3.7133,-11.17981 -15.57362,-17.63149 -26.69052,-14.51894 -14.7515,4.13016 -20.9061,22.38751 -11.635,34.51486 5.8698,7.67827 17.1381,10.64733 26.1391,6.88737 z"
         id="path1185" />
    </g>
  </g>
</svg>
