<?xml version="1.0" standalone="no"?>
<!DOCTYPE svg PUBLIC "-//W3C//DTD SVG 20010904//EN"
 "http://www.w3.org/TR/2001/REC-SVG-20010904/DTD/svg10.dtd">
<svg version="1.0" xmlns="http://www.w3.org/2000/svg"
 width="385.000000pt" height="385.000000pt" viewBox="0 0 385.000000 385.000000"
 preserveAspectRatio="xMidYMid meet">
<metadata>
Created by potrace 1.11, written by Peter Selinger 2001-2013
</metadata>
<g transform="translate(0.000000,385.000000) scale(0.100000,-0.100000)"
fill="#000000" stroke="none">
<path d="M950 2851 l0 -650 -70 -22 c-38 -13 -70 -28 -70 -34 0 -5 -10 -15
-22 -20 -14 -6 -24 -21 -26 -37 -5 -40 26 -52 115 -45 l73 5 0 -39 0 -39 374
0 374 0 7 32 c11 49 8 104 -8 135 -17 32 -102 79 -162 88 -62 10 -327 -61
-532 -144 l-53 -21 0 69 0 68 128 41 c204 65 687 179 857 202 44 6 94 13 110
15 17 2 66 7 110 11 44 3 81 8 83 9 1 1 -2 14 -7 28 -6 15 -7 57 -3 99 4 40 7
190 7 333 l0 260 -52 3 -53 3 0 93 0 94 30 4 30 5 0 -58 0 -58 55 -12 55 -12
1 -291 c0 -160 1 -331 1 -380 0 -64 -4 -91 -13 -97 -9 -5 10 -9 49 -9 l63 0
-3 -67 -3 -67 -110 -3 c-60 -2 -126 -6 -145 -10 l-35 -6 48 -8 c87 -14 186
-76 228 -144 l19 -30 0 101 0 100 42 3 c23 1 48 7 56 13 19 17 52 84 52 108 0
18 -6 20 -75 20 l-75 0 0 505 0 505 -725 0 -725 0 0 -649z m491 515 c59 -41
76 -123 39 -184 -22 -35 -88 -72 -130 -72 -14 0 -44 9 -67 20 -130 59 -101
239 42 260 45 7 84 -1 116 -24z m637 -305 c-2 -181 -6 -332 -9 -336 -4 -3 -47
-6 -95 -6 -49 0 -104 -3 -121 -6 l-33 -5 0 -75 0 -74 -32 3 -33 3 -3 68 -3 67
-147 0 c-81 0 -152 4 -158 8 -15 10 -25 65 -14 81 6 11 21 12 62 7 59 -8 477
-8 490 0 4 3 8 126 8 273 l0 268 38 26 c20 14 41 26 45 26 4 1 6 -147 5 -328z
m82 -83 c0 -84 -3 -183 -7 -220 l-6 -68 -56 0 -56 1 35 18 c40 22 36 -4 39
289 l1 132 25 0 25 0 0 -152z m-796 -24 c14 -5 16 -32 16 -199 0 -203 0 -205
-48 -220 l-24 -7 4 124 3 124 -23 -27 c-19 -24 -23 -40 -25 -126 -3 -97 -9
-123 -28 -123 -12 0 -12 221 0 253 8 20 6 27 -5 31 -30 12 -33 5 -33 -96 -1
-57 -3 -112 -5 -123 -3 -11 -5 -23 -5 -26 -1 -3 -13 -11 -27 -18 l-26 -12 5
135 c3 94 1 136 -7 139 -30 11 -34 -6 -35 -144 l-2 -139 36 0 c42 0 44 -8 6
-44 -27 -26 -31 -27 -105 -20 -42 4 -76 10 -76 13 0 4 14 21 30 39 l30 33 0
215 0 214 40 0 40 0 1 -62 c1 -35 1 -66 0 -70 0 -4 14 -4 32 0 60 13 134 8
154 -10 11 -10 23 -18 27 -18 4 0 5 38 3 85 -5 78 -4 85 13 85 10 0 25 -3 34
-6z m793 -427 c2 -3 -6 -16 -19 -30 l-23 -26 -245 -6 c-370 -9 -530 -15 -583
-21 -47 -6 -48 -5 -38 15 26 47 50 53 243 58 101 3 251 8 333 12 155 6 324 5
332 -2z"/>
<path d="M1795 2293 c-11 -2 -44 -9 -74 -15 l-54 -10 48 -25 c108 -54 156
-113 176 -215 l12 -58 248 0 249 0 0 31 c0 18 7 37 15 43 12 9 13 18 2 56
l-12 45 -5 -55 -5 -55 -75 -27 c-41 -15 -80 -27 -87 -27 -9 -1 -11 16 -7 62 7
83 -20 138 -91 185 -82 54 -145 72 -238 71 -45 -1 -91 -3 -102 -6z"/>
<path d="M2605 2118 c63 -122 78 -143 99 -145 18 -1 27 5 36 26 6 15 39 80 74
144 63 117 63 117 37 117 -23 0 -32 -11 -76 -102 l-49 -101 -50 101 -49 102
-48 0 -48 0 74 -142z"/>
<path d="M2920 2115 l0 -145 39 0 c22 0 41 5 43 13 3 6 6 72 7 145 l2 132 -45
0 -46 0 0 -145z"/>
<path d="M3087 2253 c-9 -9 -9 -255 1 -270 5 -7 41 -11 105 -11 89 0 97 1 97
19 0 17 -8 19 -60 19 l-60 0 0 125 0 125 -38 0 c-21 0 -42 -3 -45 -7z"/>
<path d="M3342 2118 l3 -143 103 -2 c95 -2 102 -1 102 18 0 17 -7 19 -60 19
l-60 0 0 125 0 125 -45 0 -46 0 3 -142z"/>
<path d="M3602 2118 l3 -143 90 0 c103 0 115 2 115 21 0 10 -15 14 -60 14
l-60 0 0 50 0 50 58 0 c46 0 59 3 59 15 0 12 -13 15 -57 15 -31 0 -59 2 -61 4
-3 3 -3 24 -1 46 l4 42 59 -6 c54 -5 59 -4 59 14 0 19 -7 20 -105 20 l-106 0
3 -142z"/>
<path d="M946 1823 c-13 -21 -99 -159 -191 -308 -92 -148 -182 -292 -199 -320
-65 -99 -66 -92 23 -93 l77 -1 59 115 59 114 192 0 193 0 58 -115 58 -115 143
1 143 0 -19 32 c-10 18 -104 172 -207 342 -104 171 -198 327 -209 347 l-21 38
-67 0 c-67 0 -68 0 -92 -37z m98 -298 c36 -63 66 -117 66 -120 0 -3 -63 -5
-140 -5 -77 0 -140 3 -140 6 0 13 137 234 145 234 2 0 33 -52 69 -115z"/>
<path d="M2537 1854 c-4 -4 -7 -173 -7 -375 0 -334 2 -367 17 -373 23 -9 351
-6 451 4 111 12 205 44 254 88 47 42 56 58 62 108 6 49 -14 95 -55 127 -45 34
-79 47 -169 62 -74 12 -74 12 -35 19 146 27 235 91 235 169 0 43 -28 94 -64
116 -70 44 -137 53 -416 58 -146 2 -269 1 -273 -3z m415 -74 c82 -23 115 -117
62 -180 -38 -45 -77 -61 -160 -67 l-74 -6 0 132 0 131 68 0 c37 0 84 -5 104
-10z m17 -336 c20 -8 43 -22 53 -31 23 -21 41 -87 33 -123 -15 -68 -112 -120
-222 -120 l-53 0 0 143 c0 79 3 147 8 151 10 11 141 -3 181 -20z"/>
<path d="M1710 1475 l0 -374 311 2 311 2 2 47 2 47 -188 -6 -188 -6 0 331 0
332 -125 0 -125 0 0 -375z"/>
<path d="M3560 1475 l0 -375 125 1 125 0 0 375 0 374 -125 0 -125 0 0 -375z"/>
<path d="M488 1776 c-20 -10 -24 -22 -31 -95 -4 -49 -17 -108 -31 -144 l-25
-60 36 34 c50 48 223 250 223 260 0 5 -19 10 -42 10 -24 1 -57 2 -75 4 -18 1
-43 -3 -55 -9z"/>
<path d="M50 1245 l0 -148 123 6 c139 6 200 24 243 68 25 26 29 38 29 84 0 39
-5 59 -20 75 -42 46 -72 54 -227 58 l-148 4 0 -147z m240 100 c41 -21 53 -41
52 -90 -2 -83 -34 -112 -136 -122 l-66 -6 0 115 c0 63 3 117 6 120 9 10 117
-3 144 -17z"/>
<path d="M30 980 l0 -60 1898 3 1897 2 0 55 0 55 -1897 3 -1898 2 0 -60z"/>
<path d="M1851 844 c-26 -19 -27 -46 -1 -69 17 -15 24 -16 46 -7 20 10 25 18
22 43 -4 39 -35 55 -67 33z"/>
<path d="M2140 840 c-25 -25 -25 -32 -1 -61 16 -21 22 -22 45 -11 33 15 37 65
7 82 -26 13 -28 13 -51 -10z"/>
<path d="M3268 849 c-29 -16 -23 -67 8 -81 23 -11 29 -10 45 11 24 29 24 36
-1 61 -23 23 -28 24 -52 9z"/>
<path d="M3595 843 c-32 -8 -63 -42 -69 -79 -4 -20 -13 -34 -21 -34 -10 0 -15
-10 -15 -30 0 -20 5 -30 15 -30 12 0 15 -19 15 -110 l0 -110 40 0 40 0 0 110
0 110 25 0 c21 0 25 5 25 30 0 25 -4 30 -25 30 -14 0 -25 4 -25 9 0 25 14 41
36 41 20 0 24 5 24 29 0 17 -6 31 -16 35 -17 6 -18 6 -49 -1z"/>
<path d="M2880 645 l0 -195 35 0 35 0 0 195 0 195 -35 0 -35 0 0 -195z"/>
<path d="M3000 645 l0 -195 35 0 c19 0 35 5 35 11 0 6 9 4 21 -4 39 -28 102 9
115 67 13 55 6 135 -13 169 -14 24 -27 33 -52 35 -18 2 -39 -2 -47 -9 -12 -10
-14 -2 -14 55 l0 66 -40 0 -40 0 0 -195z m140 -59 c0 -49 -20 -82 -44 -73 -12
5 -16 20 -16 70 0 75 16 100 43 66 10 -13 17 -38 17 -63z"/>
<path d="M50 718 c0 -7 14 -70 31 -140 l31 -128 34 0 c36 0 41 10 60 115 8 46
15 35 34 -57 11 -56 12 -58 44 -58 l33 0 34 130 c18 72 36 130 39 130 3 0 17
-44 30 -97 41 -172 37 -163 75 -163 l34 0 18 82 17 83 16 -80 15 -80 35 -3 35
-3 33 128 c17 71 32 134 32 141 0 7 -14 12 -35 12 -38 0 -35 5 -53 -125 l-8
-60 -18 93 -19 93 -31 -3 c-30 -3 -31 -5 -46 -80 -8 -42 -18 -79 -21 -83 -4
-3 -10 26 -13 66 -11 103 -7 99 -96 99 l-78 0 -13 -92 c-11 -81 -14 -88 -20
-58 -4 19 -12 61 -19 93 -11 53 -13 57 -40 57 -33 0 -34 -3 -51 -106 -14 -88
-21 -80 -33 39 l-8 67 -39 0 c-24 0 -39 -5 -39 -12z"/>
<path d="M740 723 c0 -5 15 -66 33 -138 l33 -130 34 0 c33 0 34 1 51 68 9 38
19 70 21 72 2 3 10 -29 17 -71 l14 -75 35 3 36 3 33 130 c18 72 33 134 33 138
0 5 -17 7 -37 5 l-38 -3 -11 -75 c-6 -41 -12 -77 -14 -80 -1 -3 -10 31 -19 75
-16 78 -17 80 -46 80 -29 0 -30 -2 -46 -75 -23 -110 -25 -112 -33 -35 -12 114
-13 115 -57 115 -21 0 -39 -3 -39 -7z"/>
<path d="M1220 590 l0 -140 39 0 39 0 1 103 c2 107 9 129 36 107 12 -10 15
-34 15 -111 l0 -99 35 0 35 0 0 93 c0 68 4 99 15 113 15 19 15 19 30 0 11 -14
15 -45 15 -113 l0 -93 35 0 35 0 0 111 c0 105 -8 144 -34 161 -18 13 -60 9
-83 -7 -18 -13 -22 -13 -33 0 -15 18 -63 20 -93 4 -16 -9 -22 -9 -25 0 -2 6
-17 11 -33 11 l-29 0 0 -140z"/>
<path d="M1623 720 c-18 -7 -21 -14 -14 -31 6 -18 16 -23 52 -23 33 -1 44 -5
47 -18 2 -13 -3 -18 -18 -18 -29 0 -77 -26 -90 -49 -13 -25 -13 -77 1 -102 16
-31 56 -42 90 -25 16 8 29 10 29 5 0 -5 16 -9 36 -9 l36 0 -4 116 c-3 113 -4
116 -31 140 -30 25 -90 32 -134 14z m89 -175 c-4 -37 -16 -50 -36 -42 -33 13
-11 81 24 75 10 -2 14 -13 12 -33z"/>
<path d="M1840 591 l0 -141 41 0 41 0 -4 138 -3 137 -37 3 -38 3 0 -140z"/>
<path d="M1960 590 l0 -140 40 0 40 0 0 83 c0 87 10 113 44 119 13 2 19 13 22
41 3 32 0 37 -18 37 -12 0 -30 -7 -40 -17 -17 -15 -18 -15 -18 0 0 13 -9 17
-35 17 l-35 0 0 -140z"/>
<path d="M2130 590 l0 -140 40 0 40 0 0 140 0 140 -40 0 -40 0 0 -140z"/>
<path d="M2301 714 c-32 -23 -51 -73 -51 -136 0 -97 53 -144 146 -129 33 5 39
10 39 31 0 22 -5 25 -45 28 -41 3 -70 21 -70 44 0 4 30 8 66 8 l66 0 -4 62
c-4 51 -9 65 -32 85 -32 27 -81 30 -115 7z m79 -75 c0 -14 -7 -19 -30 -19 -34
0 -36 6 -14 38 13 18 19 21 30 11 8 -6 14 -20 14 -30z"/>
<path d="M2661 719 c-15 -6 -21 -14 -17 -25 3 -9 6 -19 6 -23 0 -4 21 -7 47
-7 36 1 48 -3 51 -15 2 -12 -7 -18 -36 -22 -53 -9 -87 -47 -87 -99 0 -69 72
-108 122 -66 9 7 13 7 13 -1 0 -6 16 -11 35 -11 l35 0 0 95 c0 104 -15 156
-48 174 -25 13 -88 13 -121 0z m87 -176 c-2 -30 -7 -38 -23 -38 -24 0 -33 38
-15 61 24 28 41 17 38 -23z"/>
<path d="M3259 723 c-1 -5 -3 -68 -5 -140 l-2 -133 39 0 39 0 0 140 0 140 -35
0 c-19 0 -36 -3 -36 -7z"/>
<path d="M3670 590 l0 -140 40 0 40 0 0 81 c0 88 10 119 40 119 17 0 20 7 20
40 0 45 -19 53 -52 23 -17 -15 -18 -15 -18 0 0 13 -9 17 -35 17 l-35 0 0 -140z"/>
<path d="M2480 605 c0 -24 3 -25 60 -25 57 0 60 1 60 25 0 24 -3 25 -60 25
-57 0 -60 -1 -60 -25z"/>
<path d="M1111 534 c-28 -20 -28 -69 -1 -84 40 -21 83 27 61 68 -15 28 -35 33
-60 16z"/>
<path d="M3402 534 c-27 -19 -28 -55 -2 -79 18 -17 21 -17 45 -1 31 21 31 61
0 82 -18 12 -24 11 -43 -2z"/>
</g>
</svg>
